<mxfile host="app.diagrams.net" agent="Mozilla/5.0 (Windows NT 10.0; Win64; x64) AppleWebKit/537.36 (KHTML, like Gecko) Chrome/131.0.0.0 Safari/537.36" version="24.9.1">
  <diagram name="Page-1" id="OZMEXE9qiZKhC_GyDNDu">
    <mxGraphModel dx="2497" dy="1948" grid="1" gridSize="10" guides="1" tooltips="1" connect="1" arrows="1" fold="1" page="1" pageScale="1" pageWidth="850" pageHeight="1100" math="0" shadow="0">
      <root>
        <mxCell id="0" />
        <mxCell id="1" parent="0" />
        <mxCell id="ywR6gdVo3KpFQ-rbXmJj-112" value="" style="rounded=0;whiteSpace=wrap;html=1;dashed=1;" vertex="1" parent="1">
          <mxGeometry x="-100" y="188" width="1000" height="420" as="geometry" />
        </mxCell>
        <mxCell id="uKL7S93gOn8IDhQJY8BF-62" value="" style="rounded=0;whiteSpace=wrap;html=1;dashed=1;" parent="1" vertex="1">
          <mxGeometry x="410" y="5" width="280" height="145" as="geometry" />
        </mxCell>
        <mxCell id="uKL7S93gOn8IDhQJY8BF-1" value="" style="endArrow=none;html=1;rounded=0;" parent="1" edge="1">
          <mxGeometry width="50" height="50" relative="1" as="geometry">
            <mxPoint x="-120" y="240" as="sourcePoint" />
            <mxPoint x="40" y="241.25" as="targetPoint" />
          </mxGeometry>
        </mxCell>
        <mxCell id="uKL7S93gOn8IDhQJY8BF-2" value="" style="endArrow=none;html=1;rounded=0;" parent="1" edge="1">
          <mxGeometry width="50" height="50" relative="1" as="geometry">
            <mxPoint x="-120" y="280" as="sourcePoint" />
            <mxPoint x="40" y="281.25" as="targetPoint" />
          </mxGeometry>
        </mxCell>
        <mxCell id="uKL7S93gOn8IDhQJY8BF-3" value="" style="endArrow=none;html=1;rounded=0;" parent="1" edge="1">
          <mxGeometry width="50" height="50" relative="1" as="geometry">
            <mxPoint x="-120" y="320" as="sourcePoint" />
            <mxPoint x="40" y="322.25" as="targetPoint" />
          </mxGeometry>
        </mxCell>
        <mxCell id="uKL7S93gOn8IDhQJY8BF-5" value="" style="endArrow=none;html=1;rounded=0;" parent="1" edge="1">
          <mxGeometry width="50" height="50" relative="1" as="geometry">
            <mxPoint x="-120" y="360" as="sourcePoint" />
            <mxPoint x="40" y="361.25" as="targetPoint" />
          </mxGeometry>
        </mxCell>
        <mxCell id="uKL7S93gOn8IDhQJY8BF-6" value="" style="endArrow=none;html=1;rounded=0;" parent="1" edge="1">
          <mxGeometry width="50" height="50" relative="1" as="geometry">
            <mxPoint x="-120" y="400" as="sourcePoint" />
            <mxPoint x="40" y="401.25" as="targetPoint" />
          </mxGeometry>
        </mxCell>
        <mxCell id="uKL7S93gOn8IDhQJY8BF-7" value="" style="endArrow=none;html=1;rounded=0;" parent="1" edge="1">
          <mxGeometry width="50" height="50" relative="1" as="geometry">
            <mxPoint x="-120" y="440" as="sourcePoint" />
            <mxPoint x="40" y="441.25" as="targetPoint" />
          </mxGeometry>
        </mxCell>
        <mxCell id="uKL7S93gOn8IDhQJY8BF-8" value="" style="endArrow=none;html=1;rounded=0;" parent="1" edge="1">
          <mxGeometry width="50" height="50" relative="1" as="geometry">
            <mxPoint x="-120" y="480" as="sourcePoint" />
            <mxPoint x="40" y="481.25" as="targetPoint" />
          </mxGeometry>
        </mxCell>
        <mxCell id="uKL7S93gOn8IDhQJY8BF-9" value="" style="endArrow=none;html=1;rounded=0;" parent="1" edge="1">
          <mxGeometry width="50" height="50" relative="1" as="geometry">
            <mxPoint x="-120" y="520" as="sourcePoint" />
            <mxPoint x="40" y="521.25" as="targetPoint" />
          </mxGeometry>
        </mxCell>
        <mxCell id="uKL7S93gOn8IDhQJY8BF-10" value="" style="endArrow=none;html=1;rounded=0;" parent="1" edge="1">
          <mxGeometry width="50" height="50" relative="1" as="geometry">
            <mxPoint x="-120" y="560" as="sourcePoint" />
            <mxPoint x="40" y="561.25" as="targetPoint" />
          </mxGeometry>
        </mxCell>
        <mxCell id="uKL7S93gOn8IDhQJY8BF-13" value="S1" style="text;html=1;align=center;verticalAlign=middle;whiteSpace=wrap;rounded=0;" parent="1" vertex="1">
          <mxGeometry x="-190" y="220" width="60" height="30" as="geometry" />
        </mxCell>
        <mxCell id="uKL7S93gOn8IDhQJY8BF-14" value="S2" style="text;html=1;align=center;verticalAlign=middle;whiteSpace=wrap;rounded=0;" parent="1" vertex="1">
          <mxGeometry x="-190" y="250" width="60" height="30" as="geometry" />
        </mxCell>
        <mxCell id="uKL7S93gOn8IDhQJY8BF-15" value="S3" style="text;html=1;align=center;verticalAlign=middle;whiteSpace=wrap;rounded=0;" parent="1" vertex="1">
          <mxGeometry x="-190" y="290" width="60" height="30" as="geometry" />
        </mxCell>
        <mxCell id="uKL7S93gOn8IDhQJY8BF-16" value="S4" style="text;html=1;align=center;verticalAlign=middle;whiteSpace=wrap;rounded=0;" parent="1" vertex="1">
          <mxGeometry x="-190" y="330" width="60" height="30" as="geometry" />
        </mxCell>
        <mxCell id="uKL7S93gOn8IDhQJY8BF-17" value="S5" style="text;html=1;align=center;verticalAlign=middle;whiteSpace=wrap;rounded=0;" parent="1" vertex="1">
          <mxGeometry x="-190" y="370" width="60" height="30" as="geometry" />
        </mxCell>
        <mxCell id="uKL7S93gOn8IDhQJY8BF-18" value="S6" style="text;html=1;align=center;verticalAlign=middle;whiteSpace=wrap;rounded=0;" parent="1" vertex="1">
          <mxGeometry x="-190" y="410" width="60" height="30" as="geometry" />
        </mxCell>
        <mxCell id="uKL7S93gOn8IDhQJY8BF-19" value="S7" style="text;html=1;align=center;verticalAlign=middle;whiteSpace=wrap;rounded=0;" parent="1" vertex="1">
          <mxGeometry x="-190" y="450" width="60" height="30" as="geometry" />
        </mxCell>
        <mxCell id="uKL7S93gOn8IDhQJY8BF-20" value="S8" style="text;html=1;align=center;verticalAlign=middle;whiteSpace=wrap;rounded=0;" parent="1" vertex="1">
          <mxGeometry x="-190" y="490" width="60" height="30" as="geometry" />
        </mxCell>
        <mxCell id="uKL7S93gOn8IDhQJY8BF-21" value="S9" style="text;html=1;align=center;verticalAlign=middle;whiteSpace=wrap;rounded=0;" parent="1" vertex="1">
          <mxGeometry x="-190" y="530" width="60" height="30" as="geometry" />
        </mxCell>
        <mxCell id="uKL7S93gOn8IDhQJY8BF-28" value="Node" style="rounded=0;whiteSpace=wrap;html=1;" parent="1" vertex="1">
          <mxGeometry x="160" y="80" width="80" height="80" as="geometry" />
        </mxCell>
        <mxCell id="uKL7S93gOn8IDhQJY8BF-29" value="A" style="text;html=1;align=center;verticalAlign=middle;whiteSpace=wrap;rounded=0;" parent="1" vertex="1">
          <mxGeometry x="160" y="80" width="20" height="30" as="geometry" />
        </mxCell>
        <mxCell id="uKL7S93gOn8IDhQJY8BF-31" value="B" style="text;html=1;align=center;verticalAlign=middle;whiteSpace=wrap;rounded=0;" parent="1" vertex="1">
          <mxGeometry x="160" y="130" width="20" height="30" as="geometry" />
        </mxCell>
        <mxCell id="uKL7S93gOn8IDhQJY8BF-33" value="min" style="text;html=1;align=center;verticalAlign=middle;whiteSpace=wrap;rounded=0;" parent="1" vertex="1">
          <mxGeometry x="210" y="80" width="30" height="30" as="geometry" />
        </mxCell>
        <mxCell id="uKL7S93gOn8IDhQJY8BF-34" value="max" style="text;html=1;align=center;verticalAlign=middle;whiteSpace=wrap;rounded=0;" parent="1" vertex="1">
          <mxGeometry x="210" y="130" width="30" height="30" as="geometry" />
        </mxCell>
        <mxCell id="uKL7S93gOn8IDhQJY8BF-35" value="" style="endArrow=classic;html=1;rounded=0;entryX=0;entryY=0.5;entryDx=0;entryDy=0;" parent="1" target="uKL7S93gOn8IDhQJY8BF-29" edge="1">
          <mxGeometry width="50" height="50" relative="1" as="geometry">
            <mxPoint x="120" y="95" as="sourcePoint" />
            <mxPoint x="120" y="80" as="targetPoint" />
          </mxGeometry>
        </mxCell>
        <mxCell id="uKL7S93gOn8IDhQJY8BF-36" value="" style="endArrow=classic;html=1;rounded=0;entryX=0;entryY=0.5;entryDx=0;entryDy=0;" parent="1" edge="1">
          <mxGeometry width="50" height="50" relative="1" as="geometry">
            <mxPoint x="120" y="144.8" as="sourcePoint" />
            <mxPoint x="160" y="144.8" as="targetPoint" />
          </mxGeometry>
        </mxCell>
        <mxCell id="uKL7S93gOn8IDhQJY8BF-37" value="" style="endArrow=classic;html=1;rounded=0;entryX=0;entryY=0.5;entryDx=0;entryDy=0;" parent="1" edge="1">
          <mxGeometry width="50" height="50" relative="1" as="geometry">
            <mxPoint x="240" y="94.80000000000001" as="sourcePoint" />
            <mxPoint x="280" y="94.80000000000001" as="targetPoint" />
          </mxGeometry>
        </mxCell>
        <mxCell id="uKL7S93gOn8IDhQJY8BF-38" value="" style="endArrow=classic;html=1;rounded=0;entryX=0;entryY=0.5;entryDx=0;entryDy=0;" parent="1" edge="1">
          <mxGeometry width="50" height="50" relative="1" as="geometry">
            <mxPoint x="240" y="144.8" as="sourcePoint" />
            <mxPoint x="280" y="144.8" as="targetPoint" />
          </mxGeometry>
        </mxCell>
        <mxCell id="uKL7S93gOn8IDhQJY8BF-42" value="" style="endArrow=none;html=1;rounded=0;" parent="1" edge="1">
          <mxGeometry width="50" height="50" relative="1" as="geometry">
            <mxPoint x="380" y="40" as="sourcePoint" />
            <mxPoint x="460" y="40" as="targetPoint" />
          </mxGeometry>
        </mxCell>
        <mxCell id="uKL7S93gOn8IDhQJY8BF-43" value="" style="endArrow=none;html=1;rounded=0;" parent="1" edge="1">
          <mxGeometry width="50" height="50" relative="1" as="geometry">
            <mxPoint x="380" y="80" as="sourcePoint" />
            <mxPoint x="460" y="80" as="targetPoint" />
          </mxGeometry>
        </mxCell>
        <mxCell id="uKL7S93gOn8IDhQJY8BF-44" value="" style="endArrow=none;html=1;rounded=0;entryX=0.02;entryY=0.847;entryDx=0;entryDy=0;entryPerimeter=0;" parent="1" target="uKL7S93gOn8IDhQJY8BF-50" edge="1">
          <mxGeometry width="50" height="50" relative="1" as="geometry">
            <mxPoint x="380" y="120" as="sourcePoint" />
            <mxPoint x="460" y="120" as="targetPoint" />
          </mxGeometry>
        </mxCell>
        <mxCell id="uKL7S93gOn8IDhQJY8BF-45" value="S1" style="text;html=1;align=center;verticalAlign=middle;whiteSpace=wrap;rounded=0;" parent="1" vertex="1">
          <mxGeometry x="330" y="20" width="60" height="30" as="geometry" />
        </mxCell>
        <mxCell id="uKL7S93gOn8IDhQJY8BF-46" value="S2" style="text;html=1;align=center;verticalAlign=middle;whiteSpace=wrap;rounded=0;" parent="1" vertex="1">
          <mxGeometry x="330" y="50" width="60" height="30" as="geometry" />
        </mxCell>
        <mxCell id="uKL7S93gOn8IDhQJY8BF-47" value="S3" style="text;html=1;align=center;verticalAlign=middle;whiteSpace=wrap;rounded=0;" parent="1" vertex="1">
          <mxGeometry x="330" y="90" width="60" height="30" as="geometry" />
        </mxCell>
        <mxCell id="uKL7S93gOn8IDhQJY8BF-48" value="N1" style="rounded=0;whiteSpace=wrap;html=1;" parent="1" vertex="1">
          <mxGeometry x="460" y="30" width="40" height="60" as="geometry" />
        </mxCell>
        <mxCell id="uKL7S93gOn8IDhQJY8BF-49" value="" style="endArrow=none;html=1;rounded=0;exitX=0.99;exitY=0.84;exitDx=0;exitDy=0;exitPerimeter=0;" parent="1" source="uKL7S93gOn8IDhQJY8BF-48" edge="1">
          <mxGeometry width="50" height="50" relative="1" as="geometry">
            <mxPoint x="560" y="120" as="sourcePoint" />
            <mxPoint x="540" y="80" as="targetPoint" />
          </mxGeometry>
        </mxCell>
        <mxCell id="uKL7S93gOn8IDhQJY8BF-50" value="N2" style="rounded=0;whiteSpace=wrap;html=1;" parent="1" vertex="1">
          <mxGeometry x="540" y="70" width="40" height="60" as="geometry" />
        </mxCell>
        <mxCell id="uKL7S93gOn8IDhQJY8BF-51" value="N3" style="rounded=0;whiteSpace=wrap;html=1;" parent="1" vertex="1">
          <mxGeometry x="620" y="30" width="40" height="60" as="geometry" />
        </mxCell>
        <mxCell id="uKL7S93gOn8IDhQJY8BF-52" value="" style="endArrow=none;html=1;rounded=0;entryX=-0.04;entryY=0.173;entryDx=0;entryDy=0;entryPerimeter=0;exitX=1.04;exitY=0.167;exitDx=0;exitDy=0;exitPerimeter=0;" parent="1" source="uKL7S93gOn8IDhQJY8BF-48" target="uKL7S93gOn8IDhQJY8BF-51" edge="1">
          <mxGeometry width="50" height="50" relative="1" as="geometry">
            <mxPoint x="535" y="80" as="sourcePoint" />
            <mxPoint x="585" y="30" as="targetPoint" />
          </mxGeometry>
        </mxCell>
        <mxCell id="uKL7S93gOn8IDhQJY8BF-53" value="" style="endArrow=none;html=1;rounded=0;exitX=0.992;exitY=0.167;exitDx=0;exitDy=0;exitPerimeter=0;entryX=0.017;entryY=0.822;entryDx=0;entryDy=0;entryPerimeter=0;" parent="1" source="uKL7S93gOn8IDhQJY8BF-50" target="uKL7S93gOn8IDhQJY8BF-51" edge="1">
          <mxGeometry width="50" height="50" relative="1" as="geometry">
            <mxPoint x="650" y="100" as="sourcePoint" />
            <mxPoint x="700" y="50" as="targetPoint" />
          </mxGeometry>
        </mxCell>
        <mxCell id="uKL7S93gOn8IDhQJY8BF-54" value="" style="endArrow=none;html=1;rounded=0;exitX=0.996;exitY=0.837;exitDx=0;exitDy=0;exitPerimeter=0;" parent="1" source="uKL7S93gOn8IDhQJY8BF-50" edge="1">
          <mxGeometry width="50" height="50" relative="1" as="geometry">
            <mxPoint x="650" y="150" as="sourcePoint" />
            <mxPoint x="720" y="120" as="targetPoint" />
          </mxGeometry>
        </mxCell>
        <mxCell id="uKL7S93gOn8IDhQJY8BF-55" value="" style="endArrow=none;html=1;rounded=0;" parent="1" edge="1">
          <mxGeometry width="50" height="50" relative="1" as="geometry">
            <mxPoint x="661" y="41" as="sourcePoint" />
            <mxPoint x="720" y="41" as="targetPoint" />
          </mxGeometry>
        </mxCell>
        <mxCell id="uKL7S93gOn8IDhQJY8BF-56" value="" style="endArrow=none;html=1;rounded=0;exitX=1.032;exitY=0.181;exitDx=0;exitDy=0;exitPerimeter=0;" parent="1" edge="1">
          <mxGeometry width="50" height="50" relative="1" as="geometry">
            <mxPoint x="660" y="80" as="sourcePoint" />
            <mxPoint x="719" y="80" as="targetPoint" />
          </mxGeometry>
        </mxCell>
        <mxCell id="uKL7S93gOn8IDhQJY8BF-58" value="min" style="text;html=1;align=center;verticalAlign=middle;whiteSpace=wrap;rounded=0;" parent="1" vertex="1">
          <mxGeometry x="720" y="10" width="60" height="30" as="geometry" />
        </mxCell>
        <mxCell id="uKL7S93gOn8IDhQJY8BF-60" value="med" style="text;html=1;align=center;verticalAlign=middle;whiteSpace=wrap;rounded=0;" parent="1" vertex="1">
          <mxGeometry x="720" y="50" width="60" height="30" as="geometry" />
        </mxCell>
        <mxCell id="uKL7S93gOn8IDhQJY8BF-61" value="max" style="text;html=1;align=center;verticalAlign=middle;whiteSpace=wrap;rounded=0;" parent="1" vertex="1">
          <mxGeometry x="720" y="90" width="60" height="30" as="geometry" />
        </mxCell>
        <mxCell id="uKL7S93gOn8IDhQJY8BF-63" value="Sorting_network" style="text;html=1;align=center;verticalAlign=middle;whiteSpace=wrap;rounded=0;" parent="1" vertex="1">
          <mxGeometry x="530" y="-30" width="60" height="30" as="geometry" />
        </mxCell>
        <mxCell id="uKL7S93gOn8IDhQJY8BF-64" value="Sorting_network" style="rounded=0;whiteSpace=wrap;html=1;" parent="1" vertex="1">
          <mxGeometry x="40" y="231.25" width="120" height="100" as="geometry" />
        </mxCell>
        <mxCell id="uKL7S93gOn8IDhQJY8BF-65" value="" style="endArrow=none;html=1;rounded=0;exitX=1.01;exitY=0.096;exitDx=0;exitDy=0;exitPerimeter=0;entryX=0.005;entryY=0.327;entryDx=0;entryDy=0;entryPerimeter=0;" parent="1" source="uKL7S93gOn8IDhQJY8BF-64" target="ywR6gdVo3KpFQ-rbXmJj-98" edge="1">
          <mxGeometry width="50" height="50" relative="1" as="geometry">
            <mxPoint x="300" y="260" as="sourcePoint" />
            <mxPoint x="407.48" y="238.55000000000018" as="targetPoint" />
          </mxGeometry>
        </mxCell>
        <mxCell id="uKL7S93gOn8IDhQJY8BF-66" value="" style="endArrow=none;html=1;rounded=0;entryX=0;entryY=0.092;entryDx=0;entryDy=0;entryPerimeter=0;" parent="1" target="uKL7S93gOn8IDhQJY8BF-96" edge="1">
          <mxGeometry width="50" height="50" relative="1" as="geometry">
            <mxPoint x="160" y="280" as="sourcePoint" />
            <mxPoint x="321" y="279.66" as="targetPoint" />
            <Array as="points">
              <mxPoint x="320" y="280" />
              <mxPoint x="360" y="359" />
            </Array>
          </mxGeometry>
        </mxCell>
        <mxCell id="uKL7S93gOn8IDhQJY8BF-67" value="" style="endArrow=none;html=1;rounded=0;exitX=1.007;exitY=0.895;exitDx=0;exitDy=0;exitPerimeter=0;entryX=-0.019;entryY=0.167;entryDx=0;entryDy=0;entryPerimeter=0;" parent="1" source="uKL7S93gOn8IDhQJY8BF-64" target="ywR6gdVo3KpFQ-rbXmJj-103" edge="1">
          <mxGeometry width="50" height="50" relative="1" as="geometry">
            <mxPoint x="240" y="320" as="sourcePoint" />
            <mxPoint x="410.0000000000002" y="500.3000000000002" as="targetPoint" />
            <Array as="points">
              <mxPoint x="320" y="320" />
              <mxPoint x="400" y="500" />
            </Array>
          </mxGeometry>
        </mxCell>
        <mxCell id="uKL7S93gOn8IDhQJY8BF-68" value="min1" style="text;html=1;align=center;verticalAlign=middle;whiteSpace=wrap;rounded=0;" parent="1" vertex="1">
          <mxGeometry x="169.5" y="210" width="60" height="30" as="geometry" />
        </mxCell>
        <mxCell id="uKL7S93gOn8IDhQJY8BF-70" value="med1" style="text;html=1;align=center;verticalAlign=middle;whiteSpace=wrap;rounded=0;" parent="1" vertex="1">
          <mxGeometry x="170" y="250" width="60" height="30" as="geometry" />
        </mxCell>
        <mxCell id="uKL7S93gOn8IDhQJY8BF-71" value="max1" style="text;html=1;align=center;verticalAlign=middle;whiteSpace=wrap;rounded=0;" parent="1" vertex="1">
          <mxGeometry x="170" y="290" width="60" height="30" as="geometry" />
        </mxCell>
        <mxCell id="uKL7S93gOn8IDhQJY8BF-80" value="Sorting_network" style="rounded=0;whiteSpace=wrap;html=1;" parent="1" vertex="1">
          <mxGeometry x="39" y="351.25" width="120" height="100" as="geometry" />
        </mxCell>
        <mxCell id="uKL7S93gOn8IDhQJY8BF-81" value="" style="endArrow=none;html=1;rounded=0;exitX=1.01;exitY=0.096;exitDx=0;exitDy=0;exitPerimeter=0;entryX=-0.006;entryY=0.658;entryDx=0;entryDy=0;entryPerimeter=0;" parent="1" source="uKL7S93gOn8IDhQJY8BF-80" edge="1" target="ywR6gdVo3KpFQ-rbXmJj-98">
          <mxGeometry width="50" height="50" relative="1" as="geometry">
            <mxPoint x="299" y="380" as="sourcePoint" />
            <mxPoint x="409" y="260" as="targetPoint" />
            <Array as="points">
              <mxPoint x="320" y="360" />
              <mxPoint x="360" y="260" />
            </Array>
          </mxGeometry>
        </mxCell>
        <mxCell id="uKL7S93gOn8IDhQJY8BF-82" value="" style="endArrow=none;html=1;rounded=0;entryX=0;entryY=0.5;entryDx=0;entryDy=0;" parent="1" target="uKL7S93gOn8IDhQJY8BF-96" edge="1">
          <mxGeometry width="50" height="50" relative="1" as="geometry">
            <mxPoint x="159" y="400" as="sourcePoint" />
            <mxPoint x="320" y="399.66" as="targetPoint" />
          </mxGeometry>
        </mxCell>
        <mxCell id="uKL7S93gOn8IDhQJY8BF-83" value="" style="endArrow=none;html=1;rounded=0;entryX=0.016;entryY=0.668;entryDx=0;entryDy=0;entryPerimeter=0;" parent="1" target="ywR6gdVo3KpFQ-rbXmJj-103" edge="1">
          <mxGeometry width="50" height="50" relative="1" as="geometry">
            <mxPoint x="160" y="440" as="sourcePoint" />
            <mxPoint x="408.9200000000001" y="529.5999999999999" as="targetPoint" />
            <Array as="points">
              <mxPoint x="320" y="440" />
              <mxPoint x="350" y="530" />
            </Array>
          </mxGeometry>
        </mxCell>
        <mxCell id="uKL7S93gOn8IDhQJY8BF-84" value="min2" style="text;html=1;align=center;verticalAlign=middle;whiteSpace=wrap;rounded=0;" parent="1" vertex="1">
          <mxGeometry x="169.5" y="330" width="60" height="30" as="geometry" />
        </mxCell>
        <mxCell id="uKL7S93gOn8IDhQJY8BF-85" value="med2" style="text;html=1;align=center;verticalAlign=middle;whiteSpace=wrap;rounded=0;" parent="1" vertex="1">
          <mxGeometry x="170" y="370" width="60" height="30" as="geometry" />
        </mxCell>
        <mxCell id="uKL7S93gOn8IDhQJY8BF-86" value="max2" style="text;html=1;align=center;verticalAlign=middle;whiteSpace=wrap;rounded=0;" parent="1" vertex="1">
          <mxGeometry x="170" y="410" width="60" height="30" as="geometry" />
        </mxCell>
        <mxCell id="uKL7S93gOn8IDhQJY8BF-87" value="Sorting_network" style="rounded=0;whiteSpace=wrap;html=1;" parent="1" vertex="1">
          <mxGeometry x="40" y="471.25" width="120" height="100" as="geometry" />
        </mxCell>
        <mxCell id="uKL7S93gOn8IDhQJY8BF-88" value="" style="endArrow=none;html=1;rounded=0;exitX=1.01;exitY=0.096;exitDx=0;exitDy=0;exitPerimeter=0;entryX=-0.011;entryY=0.829;entryDx=0;entryDy=0;entryPerimeter=0;" parent="1" source="uKL7S93gOn8IDhQJY8BF-87" edge="1" target="ywR6gdVo3KpFQ-rbXmJj-99">
          <mxGeometry width="50" height="50" relative="1" as="geometry">
            <mxPoint x="300" y="500" as="sourcePoint" />
            <mxPoint x="410" y="280" as="targetPoint" />
            <Array as="points">
              <mxPoint x="320" y="480" />
              <mxPoint x="400" y="290" />
            </Array>
          </mxGeometry>
        </mxCell>
        <mxCell id="uKL7S93gOn8IDhQJY8BF-89" value="" style="endArrow=none;html=1;rounded=0;exitX=1;exitY=0.5;exitDx=0;exitDy=0;entryX=-0.022;entryY=0.907;entryDx=0;entryDy=0;entryPerimeter=0;" parent="1" source="uKL7S93gOn8IDhQJY8BF-87" target="uKL7S93gOn8IDhQJY8BF-96" edge="1">
          <mxGeometry width="50" height="50" relative="1" as="geometry">
            <mxPoint x="240" y="519.6600000000001" as="sourcePoint" />
            <mxPoint x="321" y="519.6600000000001" as="targetPoint" />
            <Array as="points">
              <mxPoint x="320" y="520" />
              <mxPoint x="360" y="440" />
            </Array>
          </mxGeometry>
        </mxCell>
        <mxCell id="uKL7S93gOn8IDhQJY8BF-90" value="" style="endArrow=none;html=1;rounded=0;exitX=1.007;exitY=0.888;exitDx=0;exitDy=0;exitPerimeter=0;entryX=-0.024;entryY=0.81;entryDx=0;entryDy=0;entryPerimeter=0;" parent="1" source="uKL7S93gOn8IDhQJY8BF-87" target="ywR6gdVo3KpFQ-rbXmJj-104" edge="1">
          <mxGeometry width="50" height="50" relative="1" as="geometry">
            <mxPoint x="240" y="560" as="sourcePoint" />
            <mxPoint x="407.72" y="559.0000000000002" as="targetPoint" />
          </mxGeometry>
        </mxCell>
        <mxCell id="uKL7S93gOn8IDhQJY8BF-91" value="min3" style="text;html=1;align=center;verticalAlign=middle;whiteSpace=wrap;rounded=0;" parent="1" vertex="1">
          <mxGeometry x="170" y="451.25" width="60" height="30" as="geometry" />
        </mxCell>
        <mxCell id="uKL7S93gOn8IDhQJY8BF-92" value="med3" style="text;html=1;align=center;verticalAlign=middle;whiteSpace=wrap;rounded=0;" parent="1" vertex="1">
          <mxGeometry x="169.5" y="490" width="60" height="30" as="geometry" />
        </mxCell>
        <mxCell id="uKL7S93gOn8IDhQJY8BF-93" value="max3" style="text;html=1;align=center;verticalAlign=middle;whiteSpace=wrap;rounded=0;" parent="1" vertex="1">
          <mxGeometry x="170" y="530" width="60" height="30" as="geometry" />
        </mxCell>
        <mxCell id="uKL7S93gOn8IDhQJY8BF-96" value="Sorting_network" style="rounded=0;whiteSpace=wrap;html=1;" parent="1" vertex="1">
          <mxGeometry x="410" y="350" width="120" height="100" as="geometry" />
        </mxCell>
        <mxCell id="uKL7S93gOn8IDhQJY8BF-97" value="min1" style="text;html=1;align=center;verticalAlign=middle;whiteSpace=wrap;rounded=0;" parent="1" vertex="1">
          <mxGeometry x="500" y="10" width="60" height="30" as="geometry" />
        </mxCell>
        <mxCell id="uKL7S93gOn8IDhQJY8BF-99" value="max1" style="text;html=1;align=center;verticalAlign=middle;whiteSpace=wrap;rounded=0;" parent="1" vertex="1">
          <mxGeometry x="500" y="45" width="60" height="30" as="geometry" />
        </mxCell>
        <mxCell id="uKL7S93gOn8IDhQJY8BF-100" value="min2" style="text;html=1;align=center;verticalAlign=middle;whiteSpace=wrap;rounded=0;" parent="1" vertex="1">
          <mxGeometry x="569" y="50" width="60" height="30" as="geometry" />
        </mxCell>
        <mxCell id="uKL7S93gOn8IDhQJY8BF-104" value="" style="endArrow=none;html=1;rounded=0;exitX=1;exitY=0.5;exitDx=0;exitDy=0;entryX=0;entryY=0.5;entryDx=0;entryDy=0;" parent="1" source="uKL7S93gOn8IDhQJY8BF-96" target="uKL7S93gOn8IDhQJY8BF-107" edge="1">
          <mxGeometry width="50" height="50" relative="1" as="geometry">
            <mxPoint x="740" y="460" as="sourcePoint" />
            <mxPoint x="600" y="400" as="targetPoint" />
          </mxGeometry>
        </mxCell>
        <mxCell id="uKL7S93gOn8IDhQJY8BF-107" value="Sorting_network" style="rounded=0;whiteSpace=wrap;html=1;" parent="1" vertex="1">
          <mxGeometry x="720" y="350" width="120" height="100" as="geometry" />
        </mxCell>
        <mxCell id="uKL7S93gOn8IDhQJY8BF-108" value="" style="endArrow=none;html=1;rounded=0;entryX=0.001;entryY=0.098;entryDx=0;entryDy=0;entryPerimeter=0;exitX=0.994;exitY=0.67;exitDx=0;exitDy=0;exitPerimeter=0;" parent="1" source="ywR6gdVo3KpFQ-rbXmJj-99" target="uKL7S93gOn8IDhQJY8BF-107" edge="1">
          <mxGeometry width="50" height="50" relative="1" as="geometry">
            <mxPoint x="530.5999999999999" y="279.0500000000002" as="sourcePoint" />
            <mxPoint x="610" y="350" as="targetPoint" />
            <Array as="points">
              <mxPoint x="570" y="280" />
              <mxPoint x="580" y="360" />
              <mxPoint x="640" y="360" />
            </Array>
          </mxGeometry>
        </mxCell>
        <mxCell id="uKL7S93gOn8IDhQJY8BF-110" value="" style="endArrow=none;html=1;rounded=0;entryX=-0.001;entryY=0.899;entryDx=0;entryDy=0;entryPerimeter=0;exitX=1;exitY=0.146;exitDx=0;exitDy=0;exitPerimeter=0;" parent="1" source="ywR6gdVo3KpFQ-rbXmJj-104" target="uKL7S93gOn8IDhQJY8BF-107" edge="1">
          <mxGeometry width="50" height="50" relative="1" as="geometry">
            <mxPoint x="530.0000000000002" y="520" as="sourcePoint" />
            <mxPoint x="570" y="500" as="targetPoint" />
            <Array as="points">
              <mxPoint x="560" y="520" />
              <mxPoint x="580" y="440" />
            </Array>
          </mxGeometry>
        </mxCell>
        <mxCell id="uKL7S93gOn8IDhQJY8BF-111" value="" style="endArrow=none;html=1;rounded=0;exitX=1;exitY=0.5;exitDx=0;exitDy=0;entryX=0.5;entryY=1;entryDx=0;entryDy=0;" parent="1" source="uKL7S93gOn8IDhQJY8BF-107" target="uKL7S93gOn8IDhQJY8BF-119" edge="1">
          <mxGeometry width="50" height="50" relative="1" as="geometry">
            <mxPoint x="770" y="420" as="sourcePoint" />
            <mxPoint x="780" y="400" as="targetPoint" />
          </mxGeometry>
        </mxCell>
        <mxCell id="uKL7S93gOn8IDhQJY8BF-118" value="med5" style="text;html=1;align=center;verticalAlign=middle;whiteSpace=wrap;rounded=0;" parent="1" vertex="1">
          <mxGeometry x="540" y="370" width="60" height="30" as="geometry" />
        </mxCell>
        <mxCell id="uKL7S93gOn8IDhQJY8BF-119" value="med_o" style="text;html=1;align=center;verticalAlign=middle;whiteSpace=wrap;rounded=0;" parent="1" vertex="1">
          <mxGeometry x="900" y="369.99" width="60" height="30" as="geometry" />
        </mxCell>
        <mxCell id="zksBitmu3ssV2ISToepD-1" value="stage 1" style="text;html=1;align=center;verticalAlign=middle;whiteSpace=wrap;rounded=0;" parent="1" vertex="1">
          <mxGeometry x="80" y="611.25" width="60" height="30" as="geometry" />
        </mxCell>
        <mxCell id="zksBitmu3ssV2ISToepD-3" value="stage 2" style="text;html=1;align=center;verticalAlign=middle;whiteSpace=wrap;rounded=0;" parent="1" vertex="1">
          <mxGeometry x="425" y="611.25" width="60" height="30" as="geometry" />
        </mxCell>
        <mxCell id="zksBitmu3ssV2ISToepD-4" value="stage 3" style="text;html=1;align=center;verticalAlign=middle;whiteSpace=wrap;rounded=0;" parent="1" vertex="1">
          <mxGeometry x="760" y="611.25" width="60" height="30" as="geometry" />
        </mxCell>
        <mxCell id="_PjeG-Arwg3pyeLobfxm-5" value="max5" style="text;html=1;align=center;verticalAlign=middle;whiteSpace=wrap;rounded=0;" parent="1" vertex="1">
          <mxGeometry x="530" y="250" width="60" height="30" as="geometry" />
        </mxCell>
        <mxCell id="_PjeG-Arwg3pyeLobfxm-6" value="min5" style="text;html=1;align=center;verticalAlign=middle;whiteSpace=wrap;rounded=0;" parent="1" vertex="1">
          <mxGeometry x="520" y="520" width="60" height="30" as="geometry" />
        </mxCell>
        <mxCell id="ywR6gdVo3KpFQ-rbXmJj-3" value="" style="group" vertex="1" connectable="0" parent="1">
          <mxGeometry x="-50" y="230" width="9" height="24" as="geometry" />
        </mxCell>
        <mxCell id="ywR6gdVo3KpFQ-rbXmJj-1" value="" style="rounded=0;whiteSpace=wrap;html=1;" vertex="1" parent="ywR6gdVo3KpFQ-rbXmJj-3">
          <mxGeometry width="9" height="23.695345557122707" as="geometry" />
        </mxCell>
        <mxCell id="ywR6gdVo3KpFQ-rbXmJj-2" value="" style="triangle;whiteSpace=wrap;html=1;rotation=270;" vertex="1" parent="ywR6gdVo3KpFQ-rbXmJj-3">
          <mxGeometry x="1" y="18" width="7" height="4" as="geometry" />
        </mxCell>
        <mxCell id="ywR6gdVo3KpFQ-rbXmJj-24" value="" style="group" vertex="1" connectable="0" parent="1">
          <mxGeometry x="-50" y="268.75" width="9" height="24" as="geometry" />
        </mxCell>
        <mxCell id="ywR6gdVo3KpFQ-rbXmJj-25" value="" style="rounded=0;whiteSpace=wrap;html=1;" vertex="1" parent="ywR6gdVo3KpFQ-rbXmJj-24">
          <mxGeometry width="9" height="23.695345557122707" as="geometry" />
        </mxCell>
        <mxCell id="ywR6gdVo3KpFQ-rbXmJj-26" value="" style="triangle;whiteSpace=wrap;html=1;rotation=270;" vertex="1" parent="ywR6gdVo3KpFQ-rbXmJj-24">
          <mxGeometry x="1" y="18" width="7" height="4" as="geometry" />
        </mxCell>
        <mxCell id="ywR6gdVo3KpFQ-rbXmJj-27" value="" style="group" vertex="1" connectable="0" parent="1">
          <mxGeometry x="-50" y="308.75" width="9" height="24" as="geometry" />
        </mxCell>
        <mxCell id="ywR6gdVo3KpFQ-rbXmJj-28" value="" style="rounded=0;whiteSpace=wrap;html=1;" vertex="1" parent="ywR6gdVo3KpFQ-rbXmJj-27">
          <mxGeometry width="9" height="23.695345557122707" as="geometry" />
        </mxCell>
        <mxCell id="ywR6gdVo3KpFQ-rbXmJj-29" value="" style="triangle;whiteSpace=wrap;html=1;rotation=270;" vertex="1" parent="ywR6gdVo3KpFQ-rbXmJj-27">
          <mxGeometry x="1" y="18" width="7" height="4" as="geometry" />
        </mxCell>
        <mxCell id="ywR6gdVo3KpFQ-rbXmJj-30" value="" style="group" vertex="1" connectable="0" parent="1">
          <mxGeometry x="-50" y="348.75" width="9" height="24" as="geometry" />
        </mxCell>
        <mxCell id="ywR6gdVo3KpFQ-rbXmJj-31" value="" style="rounded=0;whiteSpace=wrap;html=1;" vertex="1" parent="ywR6gdVo3KpFQ-rbXmJj-30">
          <mxGeometry width="9" height="23.695345557122707" as="geometry" />
        </mxCell>
        <mxCell id="ywR6gdVo3KpFQ-rbXmJj-32" value="" style="triangle;whiteSpace=wrap;html=1;rotation=270;" vertex="1" parent="ywR6gdVo3KpFQ-rbXmJj-30">
          <mxGeometry x="1" y="18" width="7" height="4" as="geometry" />
        </mxCell>
        <mxCell id="ywR6gdVo3KpFQ-rbXmJj-33" value="" style="group" vertex="1" connectable="0" parent="1">
          <mxGeometry x="-50" y="388.75" width="9" height="24" as="geometry" />
        </mxCell>
        <mxCell id="ywR6gdVo3KpFQ-rbXmJj-34" value="" style="rounded=0;whiteSpace=wrap;html=1;" vertex="1" parent="ywR6gdVo3KpFQ-rbXmJj-33">
          <mxGeometry width="9" height="23.695345557122707" as="geometry" />
        </mxCell>
        <mxCell id="ywR6gdVo3KpFQ-rbXmJj-35" value="" style="triangle;whiteSpace=wrap;html=1;rotation=270;" vertex="1" parent="ywR6gdVo3KpFQ-rbXmJj-33">
          <mxGeometry x="1" y="18" width="7" height="4" as="geometry" />
        </mxCell>
        <mxCell id="ywR6gdVo3KpFQ-rbXmJj-36" value="" style="group" vertex="1" connectable="0" parent="1">
          <mxGeometry x="-50" y="426" width="9" height="24" as="geometry" />
        </mxCell>
        <mxCell id="ywR6gdVo3KpFQ-rbXmJj-37" value="" style="rounded=0;whiteSpace=wrap;html=1;" vertex="1" parent="ywR6gdVo3KpFQ-rbXmJj-36">
          <mxGeometry width="9" height="23.695345557122707" as="geometry" />
        </mxCell>
        <mxCell id="ywR6gdVo3KpFQ-rbXmJj-38" value="" style="triangle;whiteSpace=wrap;html=1;rotation=270;" vertex="1" parent="ywR6gdVo3KpFQ-rbXmJj-36">
          <mxGeometry x="1" y="18" width="7" height="4" as="geometry" />
        </mxCell>
        <mxCell id="ywR6gdVo3KpFQ-rbXmJj-40" value="" style="group" vertex="1" connectable="0" parent="1">
          <mxGeometry x="-50" y="468.75" width="9" height="24" as="geometry" />
        </mxCell>
        <mxCell id="ywR6gdVo3KpFQ-rbXmJj-41" value="" style="rounded=0;whiteSpace=wrap;html=1;" vertex="1" parent="ywR6gdVo3KpFQ-rbXmJj-40">
          <mxGeometry width="9" height="23.695345557122707" as="geometry" />
        </mxCell>
        <mxCell id="ywR6gdVo3KpFQ-rbXmJj-42" value="" style="triangle;whiteSpace=wrap;html=1;rotation=270;" vertex="1" parent="ywR6gdVo3KpFQ-rbXmJj-40">
          <mxGeometry x="1" y="18" width="7" height="4" as="geometry" />
        </mxCell>
        <mxCell id="ywR6gdVo3KpFQ-rbXmJj-43" value="" style="group" vertex="1" connectable="0" parent="1">
          <mxGeometry x="-50" y="508.75" width="9" height="24" as="geometry" />
        </mxCell>
        <mxCell id="ywR6gdVo3KpFQ-rbXmJj-44" value="" style="rounded=0;whiteSpace=wrap;html=1;" vertex="1" parent="ywR6gdVo3KpFQ-rbXmJj-43">
          <mxGeometry width="9" height="23.695345557122707" as="geometry" />
        </mxCell>
        <mxCell id="ywR6gdVo3KpFQ-rbXmJj-45" value="" style="triangle;whiteSpace=wrap;html=1;rotation=270;" vertex="1" parent="ywR6gdVo3KpFQ-rbXmJj-43">
          <mxGeometry x="1" y="18" width="7" height="4" as="geometry" />
        </mxCell>
        <mxCell id="ywR6gdVo3KpFQ-rbXmJj-46" value="" style="group" vertex="1" connectable="0" parent="1">
          <mxGeometry x="-50" y="548.75" width="9" height="24" as="geometry" />
        </mxCell>
        <mxCell id="ywR6gdVo3KpFQ-rbXmJj-47" value="" style="rounded=0;whiteSpace=wrap;html=1;" vertex="1" parent="ywR6gdVo3KpFQ-rbXmJj-46">
          <mxGeometry width="9" height="23.695345557122707" as="geometry" />
        </mxCell>
        <mxCell id="ywR6gdVo3KpFQ-rbXmJj-48" value="" style="triangle;whiteSpace=wrap;html=1;rotation=270;" vertex="1" parent="ywR6gdVo3KpFQ-rbXmJj-46">
          <mxGeometry x="1" y="18" width="7" height="4" as="geometry" />
        </mxCell>
        <mxCell id="ywR6gdVo3KpFQ-rbXmJj-52" value="" style="group" vertex="1" connectable="0" parent="1">
          <mxGeometry x="240" y="226" width="9" height="24" as="geometry" />
        </mxCell>
        <mxCell id="ywR6gdVo3KpFQ-rbXmJj-53" value="" style="rounded=0;whiteSpace=wrap;html=1;" vertex="1" parent="ywR6gdVo3KpFQ-rbXmJj-52">
          <mxGeometry width="9" height="23.695345557122707" as="geometry" />
        </mxCell>
        <mxCell id="ywR6gdVo3KpFQ-rbXmJj-54" value="" style="triangle;whiteSpace=wrap;html=1;rotation=270;" vertex="1" parent="ywR6gdVo3KpFQ-rbXmJj-52">
          <mxGeometry x="1" y="18" width="7" height="4" as="geometry" />
        </mxCell>
        <mxCell id="ywR6gdVo3KpFQ-rbXmJj-59" value="" style="group" vertex="1" connectable="0" parent="1">
          <mxGeometry x="240" y="270" width="9" height="24" as="geometry" />
        </mxCell>
        <mxCell id="ywR6gdVo3KpFQ-rbXmJj-60" value="" style="rounded=0;whiteSpace=wrap;html=1;" vertex="1" parent="ywR6gdVo3KpFQ-rbXmJj-59">
          <mxGeometry width="9" height="23.695345557122707" as="geometry" />
        </mxCell>
        <mxCell id="ywR6gdVo3KpFQ-rbXmJj-61" value="" style="triangle;whiteSpace=wrap;html=1;rotation=270;" vertex="1" parent="ywR6gdVo3KpFQ-rbXmJj-59">
          <mxGeometry x="1" y="18" width="7" height="4" as="geometry" />
        </mxCell>
        <mxCell id="ywR6gdVo3KpFQ-rbXmJj-62" value="" style="group" vertex="1" connectable="0" parent="1">
          <mxGeometry x="240" y="310" width="9" height="24" as="geometry" />
        </mxCell>
        <mxCell id="ywR6gdVo3KpFQ-rbXmJj-63" value="" style="rounded=0;whiteSpace=wrap;html=1;" vertex="1" parent="ywR6gdVo3KpFQ-rbXmJj-62">
          <mxGeometry width="9" height="23.695345557122707" as="geometry" />
        </mxCell>
        <mxCell id="ywR6gdVo3KpFQ-rbXmJj-64" value="" style="triangle;whiteSpace=wrap;html=1;rotation=270;" vertex="1" parent="ywR6gdVo3KpFQ-rbXmJj-62">
          <mxGeometry x="1" y="18" width="7" height="4" as="geometry" />
        </mxCell>
        <mxCell id="ywR6gdVo3KpFQ-rbXmJj-65" value="" style="group" vertex="1" connectable="0" parent="1">
          <mxGeometry x="240" y="350" width="9" height="24" as="geometry" />
        </mxCell>
        <mxCell id="ywR6gdVo3KpFQ-rbXmJj-66" value="" style="rounded=0;whiteSpace=wrap;html=1;" vertex="1" parent="ywR6gdVo3KpFQ-rbXmJj-65">
          <mxGeometry width="9" height="23.695345557122707" as="geometry" />
        </mxCell>
        <mxCell id="ywR6gdVo3KpFQ-rbXmJj-67" value="" style="triangle;whiteSpace=wrap;html=1;rotation=270;" vertex="1" parent="ywR6gdVo3KpFQ-rbXmJj-65">
          <mxGeometry x="1" y="18" width="7" height="4" as="geometry" />
        </mxCell>
        <mxCell id="ywR6gdVo3KpFQ-rbXmJj-68" value="" style="group" vertex="1" connectable="0" parent="1">
          <mxGeometry x="240" y="390" width="9" height="24" as="geometry" />
        </mxCell>
        <mxCell id="ywR6gdVo3KpFQ-rbXmJj-69" value="" style="rounded=0;whiteSpace=wrap;html=1;" vertex="1" parent="ywR6gdVo3KpFQ-rbXmJj-68">
          <mxGeometry width="9" height="23.695345557122707" as="geometry" />
        </mxCell>
        <mxCell id="ywR6gdVo3KpFQ-rbXmJj-70" value="" style="triangle;whiteSpace=wrap;html=1;rotation=270;" vertex="1" parent="ywR6gdVo3KpFQ-rbXmJj-68">
          <mxGeometry x="1" y="18" width="7" height="4" as="geometry" />
        </mxCell>
        <mxCell id="ywR6gdVo3KpFQ-rbXmJj-71" value="" style="group" vertex="1" connectable="0" parent="1">
          <mxGeometry x="240" y="430" width="9" height="24" as="geometry" />
        </mxCell>
        <mxCell id="ywR6gdVo3KpFQ-rbXmJj-72" value="" style="rounded=0;whiteSpace=wrap;html=1;" vertex="1" parent="ywR6gdVo3KpFQ-rbXmJj-71">
          <mxGeometry width="9" height="23.695345557122707" as="geometry" />
        </mxCell>
        <mxCell id="ywR6gdVo3KpFQ-rbXmJj-73" value="" style="triangle;whiteSpace=wrap;html=1;rotation=270;" vertex="1" parent="ywR6gdVo3KpFQ-rbXmJj-71">
          <mxGeometry x="1" y="18" width="7" height="4" as="geometry" />
        </mxCell>
        <mxCell id="ywR6gdVo3KpFQ-rbXmJj-74" value="" style="group" vertex="1" connectable="0" parent="1">
          <mxGeometry x="240" y="470" width="9" height="24" as="geometry" />
        </mxCell>
        <mxCell id="ywR6gdVo3KpFQ-rbXmJj-75" value="" style="rounded=0;whiteSpace=wrap;html=1;" vertex="1" parent="ywR6gdVo3KpFQ-rbXmJj-74">
          <mxGeometry width="9" height="23.695345557122707" as="geometry" />
        </mxCell>
        <mxCell id="ywR6gdVo3KpFQ-rbXmJj-76" value="" style="triangle;whiteSpace=wrap;html=1;rotation=270;" vertex="1" parent="ywR6gdVo3KpFQ-rbXmJj-74">
          <mxGeometry x="1" y="18" width="7" height="4" as="geometry" />
        </mxCell>
        <mxCell id="ywR6gdVo3KpFQ-rbXmJj-77" value="" style="group" vertex="1" connectable="0" parent="1">
          <mxGeometry x="240" y="510" width="9" height="24" as="geometry" />
        </mxCell>
        <mxCell id="ywR6gdVo3KpFQ-rbXmJj-78" value="" style="rounded=0;whiteSpace=wrap;html=1;" vertex="1" parent="ywR6gdVo3KpFQ-rbXmJj-77">
          <mxGeometry width="9" height="23.695345557122707" as="geometry" />
        </mxCell>
        <mxCell id="ywR6gdVo3KpFQ-rbXmJj-79" value="" style="triangle;whiteSpace=wrap;html=1;rotation=270;" vertex="1" parent="ywR6gdVo3KpFQ-rbXmJj-77">
          <mxGeometry x="1" y="18" width="7" height="4" as="geometry" />
        </mxCell>
        <mxCell id="ywR6gdVo3KpFQ-rbXmJj-80" value="" style="group" vertex="1" connectable="0" parent="1">
          <mxGeometry x="240" y="550" width="9" height="24" as="geometry" />
        </mxCell>
        <mxCell id="ywR6gdVo3KpFQ-rbXmJj-81" value="" style="rounded=0;whiteSpace=wrap;html=1;" vertex="1" parent="ywR6gdVo3KpFQ-rbXmJj-80">
          <mxGeometry width="9" height="23.695345557122707" as="geometry" />
        </mxCell>
        <mxCell id="ywR6gdVo3KpFQ-rbXmJj-82" value="" style="triangle;whiteSpace=wrap;html=1;rotation=270;" vertex="1" parent="ywR6gdVo3KpFQ-rbXmJj-80">
          <mxGeometry x="1" y="18" width="7" height="4" as="geometry" />
        </mxCell>
        <mxCell id="ywR6gdVo3KpFQ-rbXmJj-86" value="" style="group" vertex="1" connectable="0" parent="1">
          <mxGeometry x="620" y="345.99" width="9" height="24" as="geometry" />
        </mxCell>
        <mxCell id="ywR6gdVo3KpFQ-rbXmJj-87" value="" style="rounded=0;whiteSpace=wrap;html=1;" vertex="1" parent="ywR6gdVo3KpFQ-rbXmJj-86">
          <mxGeometry width="9" height="23.695345557122707" as="geometry" />
        </mxCell>
        <mxCell id="ywR6gdVo3KpFQ-rbXmJj-88" value="" style="triangle;whiteSpace=wrap;html=1;rotation=270;" vertex="1" parent="ywR6gdVo3KpFQ-rbXmJj-86">
          <mxGeometry x="1" y="18" width="7" height="4" as="geometry" />
        </mxCell>
        <mxCell id="ywR6gdVo3KpFQ-rbXmJj-90" value="" style="group" vertex="1" connectable="0" parent="1">
          <mxGeometry x="620" y="386" width="9" height="24" as="geometry" />
        </mxCell>
        <mxCell id="ywR6gdVo3KpFQ-rbXmJj-91" value="" style="rounded=0;whiteSpace=wrap;html=1;" vertex="1" parent="ywR6gdVo3KpFQ-rbXmJj-90">
          <mxGeometry width="9" height="23.695345557122707" as="geometry" />
        </mxCell>
        <mxCell id="ywR6gdVo3KpFQ-rbXmJj-92" value="" style="triangle;whiteSpace=wrap;html=1;rotation=270;" vertex="1" parent="ywR6gdVo3KpFQ-rbXmJj-90">
          <mxGeometry x="1" y="18" width="7" height="4" as="geometry" />
        </mxCell>
        <mxCell id="ywR6gdVo3KpFQ-rbXmJj-94" value="" style="group" vertex="1" connectable="0" parent="1">
          <mxGeometry x="620" y="430" width="9" height="24" as="geometry" />
        </mxCell>
        <mxCell id="ywR6gdVo3KpFQ-rbXmJj-95" value="" style="rounded=0;whiteSpace=wrap;html=1;" vertex="1" parent="ywR6gdVo3KpFQ-rbXmJj-94">
          <mxGeometry width="9" height="23.695345557122707" as="geometry" />
        </mxCell>
        <mxCell id="ywR6gdVo3KpFQ-rbXmJj-96" value="" style="triangle;whiteSpace=wrap;html=1;rotation=270;" vertex="1" parent="ywR6gdVo3KpFQ-rbXmJj-94">
          <mxGeometry x="1" y="18" width="7" height="4" as="geometry" />
        </mxCell>
        <mxCell id="ywR6gdVo3KpFQ-rbXmJj-98" value="Node" style="rounded=0;whiteSpace=wrap;html=1;" vertex="1" parent="1">
          <mxGeometry x="410" y="220" width="40" height="60" as="geometry" />
        </mxCell>
        <mxCell id="ywR6gdVo3KpFQ-rbXmJj-99" value="Node" style="rounded=0;whiteSpace=wrap;html=1;" vertex="1" parent="1">
          <mxGeometry x="480" y="240" width="40" height="60" as="geometry" />
        </mxCell>
        <mxCell id="ywR6gdVo3KpFQ-rbXmJj-100" value="" style="endArrow=none;html=1;rounded=0;exitX=1;exitY=0.75;exitDx=0;exitDy=0;entryX=-0.025;entryY=0.415;entryDx=0;entryDy=0;entryPerimeter=0;" edge="1" parent="1" source="ywR6gdVo3KpFQ-rbXmJj-98" target="ywR6gdVo3KpFQ-rbXmJj-99">
          <mxGeometry width="50" height="50" relative="1" as="geometry">
            <mxPoint x="490" y="281.25" as="sourcePoint" />
            <mxPoint x="540" y="231.25" as="targetPoint" />
          </mxGeometry>
        </mxCell>
        <mxCell id="ywR6gdVo3KpFQ-rbXmJj-102" value="max4" style="text;html=1;align=center;verticalAlign=middle;whiteSpace=wrap;rounded=0;" vertex="1" parent="1">
          <mxGeometry x="450" y="210" width="60" height="30" as="geometry" />
        </mxCell>
        <mxCell id="ywR6gdVo3KpFQ-rbXmJj-103" value="Node" style="rounded=0;whiteSpace=wrap;html=1;" vertex="1" parent="1">
          <mxGeometry x="410" y="490" width="40" height="60" as="geometry" />
        </mxCell>
        <mxCell id="ywR6gdVo3KpFQ-rbXmJj-104" value="Node" style="rounded=0;whiteSpace=wrap;html=1;" vertex="1" parent="1">
          <mxGeometry x="480" y="511.25" width="40" height="60" as="geometry" />
        </mxCell>
        <mxCell id="ywR6gdVo3KpFQ-rbXmJj-105" value="" style="endArrow=none;html=1;rounded=0;entryX=0.005;entryY=0.112;entryDx=0;entryDy=0;entryPerimeter=0;exitX=1.004;exitY=0.466;exitDx=0;exitDy=0;exitPerimeter=0;" edge="1" parent="1" source="ywR6gdVo3KpFQ-rbXmJj-103" target="ywR6gdVo3KpFQ-rbXmJj-104">
          <mxGeometry width="50" height="50" relative="1" as="geometry">
            <mxPoint x="450" y="519.47" as="sourcePoint" />
            <mxPoint x="480.60000000000014" y="520" as="targetPoint" />
          </mxGeometry>
        </mxCell>
        <mxCell id="ywR6gdVo3KpFQ-rbXmJj-106" value="min4" style="text;html=1;align=center;verticalAlign=middle;whiteSpace=wrap;rounded=0;" vertex="1" parent="1">
          <mxGeometry x="440" y="481.25" width="60" height="30" as="geometry" />
        </mxCell>
      </root>
    </mxGraphModel>
  </diagram>
</mxfile>
